<?xml version="1.0" encoding="UTF-8"?>
<svg width="256px" height="256px" viewBox="0 0 256 256" version="1.1" xmlns="http://www.w3.org/2000/svg">
    <g stroke="none" stroke-width="1" fill="none" fill-rule="evenodd">
        <path d="M128,0 C57.3076,0 0,57.3076 0,128 C0,198.692 57.3076,256 128,256 C198.692,256 256,198.692 256,128 C256,57.3076 198.692,0 128,0 Z" fill="#FF6D00"/>
        <path d="M128,32 C76.3076,32 32,76.3076 32,128 C32,179.692 76.3076,224 128,224 C179.692,224 224,179.692 224,128 C224,76.3076 179.692,32 128,32 Z" fill="#FFFFFF"/>
        <path d="M128,64 C95.3076,64 64,95.3076 64,128 C64,160.692 95.3076,192 128,192 C160.692,192 192,160.692 192,128 C192,95.3076 160.692,64 128,64 Z" fill="#FF6D00"/>
        <path d="M128,96 C114.307,96 96,114.307 96,128 C96,141.693 114.307,160 128,160 C141.693,160 160,141.693 160,128 C160,114.307 141.693,96 128,96 Z" fill="#FFFFFF"/>
    </g>
</svg> 